# File created by Blade
# Date/Time:  Wed Apr 08 17:12:12 2015
# Frame Rate: 120.000 fps
#------------------------------------------------------
:FULLY-SPECIFIED
:DEGREES
1480
root 5.298863 37.348895 5.126810 80.134107 -76.520123 -58.143545
Spine -16.533823 1.550164 -0.127696
Head 7.640989 1.586041 15.092750
LeftShoulder -9.214233 21.759699 18.933761
LeftArm 17.769115 20.777655 -70.680510
LeftForeArm 27.107901 -0.000000 35.554537
LeftHand -10.766352 0.000000 -14.910841
LeftHandThumb1 -26.253704 0.000000 33.147579
RightShoulder -36.726762 -51.092898 18.198980
RightArm 51.391496 -12.713354 57.574636
RightForeArm 20.448670 -0.000000 18.745970
RightHand -0.946049 -0.000000 9.549649
RightHandThumb1 -24.326973 -0.000000 -32.862282
LeftUpLeg -23.836978 13.469709 1.080787
LeftLeg 10.822650 -0.000000 -0.000000
LeftFoot -9.921002 5.346422 -11.035076
LeftToeBase 5.676959 -0.000000 -0.000000
RightUpLeg -55.271702 -7.492895 1.138460
RightLeg 85.297692 -0.000000 -0.000000
RightFoot -8.285668 -0.544590 20.443219
RightToeBase -9.783835 -0.000000 0.000000
1481
root 5.288460 37.331647 5.117275 79.915072 -76.766044 -57.951712
Spine -16.634517 1.753941 -0.455949
Head 7.713912 1.656072 15.028414
LeftShoulder -9.282221 21.743175 18.978237
LeftArm 17.884699 20.070750 -70.308195
LeftForeArm 26.965400 -0.000000 35.608909
LeftHand -10.787048 -0.000000 -14.854466
LeftHandThumb1 -26.253704 0.000000 33.147579
RightShoulder -36.687924 -51.049563 18.019401
RightArm 51.270978 -12.453378 57.758404
RightForeArm 20.224372 -0.000000 18.543758
RightHand -0.988416 -0.000000 9.515154
RightHandThumb1 -24.326973 -0.000000 -32.862282
LeftUpLeg -23.760650 13.333221 0.916300
LeftLeg 10.830075 -0.000000 -0.000000
LeftFoot -9.982083 5.426124 -11.122573
LeftToeBase 5.670849 -0.000000 -0.000000
RightUpLeg -53.916020 -6.868789 0.541898
RightLeg 82.699362 -0.000000 -0.000000
RightFoot -8.423460 -0.618420 20.558755
RightToeBase -9.913475 -0.000000 0.000000
1482
root 5.278170 37.312269 5.109365 79.619407 -77.029981 -57.706884
Spine -16.686723 1.938879 -0.787325
Head 7.734482 1.693711 14.912435
LeftShoulder -9.359216 21.698642 19.003060
LeftArm 17.961557 19.311774 -69.941820
LeftForeArm 26.894247 -0.000000 35.669083
LeftHand -10.689548 -0.000000 -14.887016
LeftHandThumb1 -26.253704 0.000000 33.147579
RightShoulder -36.662249 -50.973917 17.830907
RightArm 51.157739 -12.171805 57.948136
RightForeArm 20.031862 -0.000000 18.342720
RightHand -0.920234 -0.000000 9.460701
RightHandThumb1 -24.326973 -0.000000 -32.862282
LeftUpLeg -23.656319 13.169823 0.735877
LeftLeg 10.837052 -0.000000 -0.000000
LeftFoot -10.100518 5.598159 -10.949306
LeftToeBase 5.885815 -0.000000 -0.000000
RightUpLeg -52.575191 -6.293077 -0.050316
RightLeg 80.121224 -0.000000 -0.000000
RightFoot -8.550067 -0.973445 20.278338
RightToeBase -9.713031 -0.000000 0.000000
1483
root 5.267594 37.288179 5.103499 79.090899 -77.325569 -57.345826
Spine -16.580428 2.092542 -1.136232
Head 7.716727 1.757637 14.817939
LeftShoulder -9.404397 21.638218 19.015335
LeftArm 18.009028 18.515995 -69.580820
LeftForeArm 26.832368 -0.000000 35.778599
LeftHand -10.858023 -0.000000 -14.543562
LeftHandThumb1 -26.253704 0.000000 33.147579
RightShoulder -36.632550 -50.920230 17.637122
RightArm 51.101751 -11.824754 58.192511
RightForeArm 19.731461 -0.000000 18.119550
RightHand -0.906087 -0.000000 9.418145
RightHandThumb1 -24.326973 -0.000000 -32.862282
LeftUpLeg -23.416176 12.951858 0.558849
LeftLeg 10.824536 -0.000000 -0.000000
LeftFoot -10.251034 5.725016 -11.125621
LeftToeBase 6.124967 -0.000000 -0.000000
RightUpLeg -51.153687 -5.741773 -0.683152
RightLeg 77.605983 -0.000000 -0.000000
RightFoot -8.671649 -1.398897 20.009691
RightToeBase -10.363781 -0.000000 0.000000
1484
root 5.263089 37.270371 5.092878 78.839425 -77.559696 -57.094737
Spine -16.665483 2.226473 -1.406107
Head 7.717529 1.861427 14.688844
LeftShoulder -9.528374 21.636567 18.985075
LeftArm 18.128945 17.744706 -69.161677
LeftForeArm 26.657918 -0.000000 35.869669
LeftHand -11.053953 -0.000000 -14.347393
LeftHandThumb1 -26.253704 0.000000 33.147579
RightShoulder -36.574596 -50.852231 17.399045
RightArm 50.992349 -11.475197 58.420351
RightForeArm 19.446397 -0.000000 17.954499
RightHand -1.015479 -0.000000 9.404373
RightHandThumb1 -24.326973 -0.000000 -32.862282
LeftUpLeg -23.343394 12.669931 0.444923
LeftLeg 10.784292 -0.000000 -0.000000
LeftFoot -10.346030 5.884036 -11.323759
LeftToeBase 6.408408 -0.000000 -0.000000
RightUpLeg -49.897909 -5.199002 -1.212603
RightLeg 75.047183 -0.000000 -0.000000
RightFoot -8.684192 -1.731889 19.851335
RightToeBase -10.529327 -0.000000 0.000000
1485
root 5.259153 37.252930 5.079991 78.798263 -77.808258 -57.030297
Spine -16.789067 2.385552 -1.685966
Head 7.721375 1.942538 14.582246
LeftShoulder -9.592479 21.634110 18.999914
LeftArm 18.160853 16.899180 -68.799425
LeftForeArm 26.555232 -0.000000 35.999545
LeftHand -10.968910 0.000000 -14.591192
LeftHandThumb1 -26.253704 0.000000 33.147579
RightShoulder -36.518908 -50.783888 17.156824
RightArm 50.875497 -11.074157 58.702918
RightForeArm 19.006851 0.000000 17.770801
RightHand -0.938939 -0.000000 9.487303
RightHandThumb1 -24.326973 -0.000000 -32.862282
LeftUpLeg -23.404338 12.723484 0.221357
LeftLeg 10.914091 -0.000000 -0.000000
LeftFoot -10.413187 5.840255 -11.287271
LeftToeBase 6.250713 -0.000000 -0.000000
RightUpLeg -48.692279 -4.633193 -1.727407
RightLeg 72.521268 -0.000000 -0.000000
RightFoot -8.684822 -1.961050 19.822056
RightToeBase -10.261278 -0.000000 0.000000
